<svg xmlns="http://www.w3.org/2000/svg" width="1024" height="512" viewBox="0 0 1024 512">
  <rect width="1024" height="512" fill="#f8fafc"/>
  <g fill="#111827" stroke="#111827" stroke-width="6">
    <polygon points="170,170 220,120 280,145 285,210 225,245 165,220"/>
    <polygon points="520,165 570,115 632,140 638,205 578,240 515,216"/>
    <polygon points="860,170 910,120 970,145 975,210 915,245 855,220"/>
    <polygon points="345,360 395,310 457,334 463,399 403,434 340,410"/>
    <polygon points="685,360 735,310 797,334 803,399 743,434 680,410"/>
  </g>
  <g stroke="#111827" stroke-width="8" fill="none" opacity="0.85">
    <path d="M80 80c140 110 300 120 420 20"/>
    <path d="M520 100c130 90 250 105 420 10"/>
    <path d="M30 290c170 130 350 130 500 20"/>
    <path d="M510 300c170 125 330 120 490 18"/>
  </g>
</svg>
